# Blender 3.3.0
# www.blender.org
mtllib pruebaPivote.mtl
o kitchenCabinet
v 0.215000 0.030000 0.210000
v 0.215000 0.030000 0.240000
v -0.215000 0.030000 0.210000
v -0.215000 0.030000 0.240000
v 0.215000 -0.030000 0.240000
v -0.215000 -0.030000 0.240000
v 0.215000 -0.030000 -0.190000
v 0.215000 -0.030000 -0.210000
v -0.215000 -0.030000 -0.190000
v -0.215000 -0.030000 -0.210000
v 0.215000 -0.000000 0.210000
v 0.215000 0.000000 -0.210000
v -0.215000 0.000000 -0.210000
v -0.215000 -0.000000 0.210000
v 0.215000 -0.420000 0.240000
v 0.215000 -0.420000 -0.170000
v -0.215000 -0.420000 0.240000
v -0.215000 -0.420000 -0.170000
v 0.188156 -0.182457 -0.170000
v 0.188156 -0.182457 0.190000
v -0.188156 -0.182457 -0.170000
v -0.188156 -0.182457 0.190000
v 0.188156 -0.334914 -0.190000
v 0.188156 -0.334914 0.190000
v -0.188156 -0.334914 -0.190000
v -0.188156 -0.334914 0.190000
v -0.188156 -0.056844 0.190000
v 0.188156 -0.056844 0.190000
v 0.188156 -0.056844 -0.190000
v -0.188156 -0.056844 -0.190000
v 0.215000 -0.361758 -0.170000
v 0.215000 -0.361758 -0.190000
v -0.215000 -0.361758 -0.170000
v -0.215000 -0.361758 -0.190000
v -0.188156 -0.209301 -0.170000
v -0.188156 -0.209301 0.190000
v 0.188156 -0.209301 0.190000
v 0.188156 -0.209301 -0.170000
v 0.188156 -0.334914 -0.170000
v -0.188156 -0.334914 -0.170000
v 0.188156 -0.056844 -0.170000
v -0.188156 -0.056844 -0.170000
v 0.188156 -0.334914 -0.190000
v -0.188156 -0.334914 -0.190000
v 0.188156 -0.056844 -0.190000
v -0.188156 -0.056844 -0.190000
v 0.167814 -0.314572 -0.190000
v -0.142814 -0.117186 -0.190000
v -0.167814 -0.314572 -0.190000
v -0.167814 -0.077186 -0.190000
v -0.142814 -0.097186 -0.190000
v -0.062814 -0.097186 -0.190000
v -0.062814 -0.117186 -0.190000
v 0.167814 -0.077186 -0.190000
v -0.142814 -0.117186 -0.210000
v -0.062814 -0.117186 -0.210000
v -0.142814 -0.107186 -0.210000
v -0.062814 -0.107186 -0.210000
v -0.142814 -0.097186 -0.200000
v -0.062814 -0.097186 -0.200000
vn -0.0000 1.0000 -0.0000
vn -0.0000 -0.0000 1.0000
vn -0.0000 -1.0000 -0.0000
vn 1.0000 -0.0000 -0.0000
vn -1.0000 -0.0000 -0.0000
vn -0.0000 -0.0000 -1.0000
vn -0.0000 0.7071 -0.7071
vt 0.000000 16.535431
vt -16.535431 17.716539
vt 0.000000 17.716539
vt 0.000000 17.716539
vt -17.716539 17.716539
vt 16.929131 16.535431
vt 16.535431 17.716539
vt 16.929131 17.716539
vt 16.929131 17.716539
vt -16.929131 17.716539
vt 17.716539 17.716539
vt -17.716539 15.354330
vt 0.000000 17.716539
vt 0.000000 15.354330
vt 17.716539 15.354330
vt 16.929131 17.716539
vt -16.929131 15.354330
vt -0.787402 15.354330
vt 0.000000 0.787402
vt 0.000000 15.354330
vt 0.000000 0.000000
vt 0.000000 15.354330
vt -16.929131 0.787402
vt 0.787402 15.354330
vt 16.929131 0.787402
vt 16.929131 15.354330
vt -16.929131 0.000000
vt 0.000000 15.354330
vt 16.929131 15.354330
vt -16.535431 16.535431
vt 0.000000 16.535431
vt 0.000000 16.535431
vt 0.000000 0.000000
vt 0.000000 16.535431
vt 16.929131 16.535431
vt 16.929131 0.000000
vt 16.535431 16.535431
vt 16.929131 16.535431
vt 0.000000 17.716539
vt -17.716539 0.000000
vt 0.000000 0.000000
vt 0.000000 1.574803
vt 0.000000 0.000000
vt -1.574803 0.000000
vt -16.929131 17.716539
vt 17.716539 0.000000
vt -16.929131 0.000000
vt -16.929131 1.574803
vt 16.929131 0.000000
vt 1.574803 0.000000
vt 1.056858 1.574803
vt 1.056858 9.352088
vt 1.574803 9.352088
vt 1.056858 15.748030
vt 1.056858 9.352088
vt 15.748030 9.352088
vt 15.872280 1.574803
vt -1.574803 9.352088
vt 15.872280 9.352088
vt 15.872280 15.748030
vt 15.872280 9.352088
vt -15.748030 9.352088
vt 1.056858 0.787402
vt 0.787402 3.349844
vt 1.056858 3.349844
vt 1.056858 15.748030
vt 1.056858 3.349844
vt 15.748030 3.349844
vt 15.872280 0.787402
vt -0.787402 3.349844
vt 15.872280 3.349844
vt 15.872280 15.748030
vt -15.748030 3.349844
vt 15.872280 3.349844
vt 15.872280 14.297470
vt -15.872280 15.748030
vt -15.748030 14.297470
vt 1.056858 14.297470
vt -1.056858 15.748030
vt 15.748030 14.297470
vt -1.056858 0.787402
vt 0.787402 14.297470
vt 1.056858 14.297470
vt -15.872280 0.787402
vt -0.787402 14.297470
vt 15.872280 14.297470
vt 0.000000 1.574803
vt 0.000000 2.292987
vt -1.574803 2.292987
vt 0.000000 0.787402
vt -0.787402 2.292987
vt 0.000000 2.292987
vt -16.929131 1.574803
vt 16.929131 2.292987
vt 1.574803 2.292987
vt -16.929131 0.787402
vt 0.787402 2.292987
vt 16.929131 2.292987
vt -1.574803 8.295230
vt -15.872280 1.574803
vt 15.872280 8.295230
vt -15.748030 8.295230
vt 15.872280 8.295230
vt -15.872280 15.748030
vt 1.056858 8.295230
vt -1.056858 15.748030
vt 15.748030 8.295230
vt -1.056858 1.574803
vt 1.056858 8.295230
vt 1.574803 8.295230
vt 0.000000 0.000000
vt 0.000000 0.393701
vt -0.393701 0.000000
vt -14.815420 0.000000
vt -14.815420 0.393701
vt 0.393701 0.000000
vt 0.000000 10.947630
vt 0.000000 0.393701
vt -0.393701 10.947630
vt -14.815420 10.947630
vt 14.815420 0.393701
vt 0.393701 10.947630
vt 0.000000 -0.393701
vt 0.393701 0.000000
vt 0.000000 0.000000
vt -14.815420 -0.393701
vt -0.393701 0.000000
vt 14.815420 0.000000
vt 0.000000 -0.393701
vt 0.393701 10.947630
vt 0.000000 10.947630
vt 14.815420 -0.393701
vt -0.393701 10.947630
vt 14.815420 10.947630
vt 0.800864 0.800864
vt -13.030300 -0.393701
vt -0.393701 8.571962
vt 13.030300 8.571962
vt 14.014550 0.800864
vt 14.014550 10.146770
vt -0.393701 9.359364
vt 13.030300 -0.393701
vt 13.030300 9.359364
vt 9.880697 -0.393701
vt 0.393701 9.359364
vt 9.880697 9.359364
vt -9.880697 -0.393701
vt 0.393701 8.571962
vt 9.880697 8.571962
vt 0.800864 10.146770
vt 13.030300 8.571962
vt -13.030300 -1.181102
vt -1.181102 8.571962
vt 9.880697 8.571962
vt -9.880697 -1.181102
vt 1.181102 8.571962
vt 13.030300 8.965663
vt -1.181102 8.965663
vt 13.030300 5.504516
vt 9.880697 8.965663
vt 1.181102 8.965663
vt 9.880697 5.504516
vt -0.787402 9.359364
vt 13.030300 -0.787402
vt 13.030300 6.061293
vt 9.880697 -0.787402
vt 0.787402 9.359364
vt 9.880697 6.061293
s 0
usemtl metal.001
f 2/4/1 1/1/1 3/6/1
f 3/6/1 4/9/1 2/4/1
f 6/17/2 5/14/2 2/4/2
f 2/4/2 4/10/2 6/17/2
f 8/21/3 7/19/3 9/23/3
f 9/23/3 10/27/3 8/21/3
f 11/30/4 1/2/4 2/5/4
f 11/30/4 2/5/4 5/12/4
f 11/30/4 5/12/4 7/18/4
f 11/30/4 7/18/4 8/22/4
f 8/22/4 12/32/4 11/30/4
f 13/34/5 10/28/5 9/24/5
f 9/24/5 14/37/5 13/34/5
f 9/24/5 6/15/5 14/37/5
f 6/15/5 3/7/5 14/37/5
f 6/15/5 4/11/5 3/7/5
f 8/22/6 10/29/6 13/35/6
f 13/35/6 12/32/6 8/22/6
f 11/31/6 14/38/6 3/8/6
f 3/8/6 1/3/6 11/31/6
f 11/31/1 12/33/1 13/36/1
f 13/36/1 14/38/1 11/31/1
f 2/4/1 1/1/1 3/6/1
f 3/6/1 4/9/1 2/4/1
f 6/17/2 5/14/2 2/4/2
f 2/4/2 4/10/2 6/17/2
f 8/21/3 7/19/3 9/23/3
f 9/23/3 10/27/3 8/21/3
f 11/30/4 1/2/4 2/5/4
f 11/30/4 2/5/4 5/12/4
f 11/30/4 5/12/4 7/18/4
f 11/30/4 7/18/4 8/22/4
f 8/22/4 12/32/4 11/30/4
f 13/34/5 10/28/5 9/24/5
f 9/24/5 14/37/5 13/34/5
f 9/24/5 6/15/5 14/37/5
f 6/15/5 3/7/5 14/37/5
f 6/15/5 4/11/5 3/7/5
f 8/22/6 10/29/6 13/35/6
f 13/35/6 12/32/6 8/22/6
f 11/31/6 14/38/6 3/8/6
f 3/8/6 1/3/6 11/31/6
f 11/31/1 12/33/1 13/36/1
f 13/36/1 14/38/1 11/31/1
f 56/154/6 55/151/6 57/157/6
f 57/157/6 58/160/6 56/154/6
f 56/155/3 53/147/3 48/136/3
f 48/136/3 55/152/3 56/155/3
f 57/158/5 55/153/5 48/137/5
f 48/137/5 59/163/5 57/158/5
f 48/137/5 51/141/5 59/163/5
f 52/144/1 60/166/1 59/164/1
f 59/164/1 51/142/1 52/144/1
f 56/156/4 58/161/4 60/167/4
f 60/167/4 53/148/4 56/156/4
f 60/167/4 52/145/4 53/148/4
f 58/162/7 57/159/7 59/165/7
f 59/165/7 60/168/7 58/162/7
usemtl wood.001
f 16/42/3 15/39/3 17/45/3
f 17/45/3 18/48/3 16/42/3
f 20/54/1 19/51/1 21/57/1
f 21/57/1 22/60/1 20/54/1
f 24/66/1 23/63/1 25/69/1
f 25/69/1 26/72/1 24/66/1
f 20/55/6 22/61/6 27/75/6
f 27/75/6 28/78/6 20/55/6
f 29/81/3 28/79/3 27/76/3
f 27/76/3 30/84/3 29/81/3
f 32/90/3 31/87/3 33/93/3
f 33/93/3 34/96/3 32/90/3
f 21/58/4 25/70/4 30/85/4
f 30/85/4 27/77/4 21/58/4
f 27/77/4 22/62/4 21/58/4
f 25/70/4 21/58/4 35/99/4
f 35/99/4 26/73/4 25/70/4
f 35/99/4 36/102/4 26/73/4
f 16/43/6 18/49/6 33/94/6
f 33/94/6 31/88/6 16/43/6
f 33/95/5 18/50/5 17/46/5
f 33/95/5 17/46/5 6/15/5
f 33/95/5 6/15/5 9/24/5
f 9/24/5 34/97/5 33/95/5
f 32/91/4 7/18/4 5/12/4
f 5/12/4 31/89/4 32/91/4
f 5/12/4 16/44/4 31/89/4
f 5/12/4 15/40/4 16/44/4
f 24/67/6 26/74/6 36/103/6
f 36/103/6 37/105/6 24/67/6
f 5/13/1 7/19/1 9/25/1
f 9/25/1 6/16/1 5/13/1
f 17/47/2 15/41/2 5/14/2
f 5/14/2 6/17/2 17/47/2
f 38/108/3 37/106/3 36/104/3
f 36/104/3 35/100/3 38/108/3
f 38/109/6 35/101/6 21/59/6
f 21/59/6 19/52/6 38/109/6
f 38/110/5 29/82/5 23/64/5
f 23/64/5 24/68/5 38/110/5
f 24/68/5 37/107/5 38/110/5
f 29/82/5 38/110/5 19/53/5
f 19/53/5 28/80/5 29/82/5
f 19/53/5 20/56/5 28/80/5
f 25/71/6 32/92/6 34/98/6
f 34/98/6 9/26/6 25/71/6
f 9/26/6 30/86/6 25/71/6
f 9/26/6 29/83/6 30/86/6
f 32/92/6 25/71/6 23/65/6
f 23/65/6 7/20/6 32/92/6
f 23/65/6 29/83/6 7/20/6
f 29/83/6 9/26/6 7/20/6
f 16/42/3 15/39/3 17/45/3
f 17/45/3 18/48/3 16/42/3
f 20/54/1 19/51/1 21/57/1
f 21/57/1 22/60/1 20/54/1
f 24/66/1 23/63/1 25/69/1
f 25/69/1 26/72/1 24/66/1
f 20/55/6 22/61/6 27/75/6
f 27/75/6 28/78/6 20/55/6
f 29/81/3 28/79/3 27/76/3
f 27/76/3 30/84/3 29/81/3
f 32/90/3 31/87/3 33/93/3
f 33/93/3 34/96/3 32/90/3
f 21/58/4 25/70/4 30/85/4
f 30/85/4 27/77/4 21/58/4
f 27/77/4 22/62/4 21/58/4
f 25/70/4 21/58/4 35/99/4
f 35/99/4 26/73/4 25/70/4
f 35/99/4 36/102/4 26/73/4
f 16/43/6 18/49/6 33/94/6
f 33/94/6 31/88/6 16/43/6
f 33/95/5 18/50/5 17/46/5
f 33/95/5 17/46/5 6/15/5
f 33/95/5 6/15/5 9/24/5
f 9/24/5 34/97/5 33/95/5
f 32/91/4 7/18/4 5/12/4
f 5/12/4 31/89/4 32/91/4
f 5/12/4 16/44/4 31/89/4
f 5/12/4 15/40/4 16/44/4
f 24/67/6 26/74/6 36/103/6
f 36/103/6 37/105/6 24/67/6
f 5/13/1 7/19/1 9/25/1
f 9/25/1 6/16/1 5/13/1
f 17/47/2 15/41/2 5/14/2
f 5/14/2 6/17/2 17/47/2
f 38/108/3 37/106/3 36/104/3
f 36/104/3 35/100/3 38/108/3
f 38/109/6 35/101/6 21/59/6
f 21/59/6 19/52/6 38/109/6
f 38/110/5 29/82/5 23/64/5
f 23/64/5 24/68/5 38/110/5
f 24/68/5 37/107/5 38/110/5
f 29/82/5 38/110/5 19/53/5
f 19/53/5 28/80/5 29/82/5
f 19/53/5 20/56/5 28/80/5
f 25/71/6 32/92/6 34/98/6
f 34/98/6 9/26/6 25/71/6
f 9/26/6 30/86/6 25/71/6
f 9/26/6 29/83/6 30/86/6
f 32/92/6 25/71/6 23/65/6
f 23/65/6 7/20/6 32/92/6
f 23/65/6 29/83/6 7/20/6
f 29/83/6 9/26/6 7/20/6
f 40/114/2 39/111/2 41/117/2
f 41/117/2 42/120/2 40/114/2
f 43/123/3 39/112/3 40/115/3
f 40/115/3 44/126/3 43/123/3
f 41/118/1 45/129/1 46/132/1
f 46/132/1 42/121/1 41/118/1
f 46/133/5 44/127/5 40/116/5
f 40/116/5 42/122/5 46/133/5
f 43/124/4 45/130/4 41/119/4
f 41/119/4 39/113/4 43/124/4
f 48/138/6 47/135/6 49/139/6
f 49/139/6 50/140/6 48/138/6
f 50/140/6 51/143/6 48/138/6
f 50/140/6 52/146/6 51/143/6
f 47/135/6 48/138/6 53/149/6
f 53/149/6 54/150/6 47/135/6
f 53/149/6 52/146/6 54/150/6
f 52/146/6 50/140/6 54/150/6
usemtl woodDark.001
f 49/139/6 43/125/6 44/128/6
f 44/128/6 46/134/6 49/139/6
f 46/134/6 50/140/6 49/139/6
f 46/134/6 54/150/6 50/140/6
f 43/125/6 49/139/6 47/135/6
f 47/135/6 45/131/6 43/125/6
f 47/135/6 54/150/6 45/131/6
f 54/150/6 46/134/6 45/131/6
